<?xml version="1.0" standalone="no"?>
<!DOCTYPE svg PUBLIC "-//W3C//DTD SVG 20010904//EN"
 "http://www.w3.org/TR/2001/REC-SVG-20010904/DTD/svg10.dtd">
<svg version="1.0" xmlns="http://www.w3.org/2000/svg"
 width="199.000000pt" height="199.000000pt" viewBox="0 0 199.000000 199.000000"
 preserveAspectRatio="xMidYMid meet">
<metadata>
Created by potrace 1.11, written by Peter Selinger 2001-2013
</metadata>
<g transform="translate(0.000000,199.000000) scale(0.100000,-0.100000)"
fill="#000000" stroke="none">
<path d="M1615 1861 c-128 -59 -440 -191 -452 -191 -7 0 -13 -4 -13 -9 0 -5
-12 -12 -26 -15 -21 -6 -33 -1 -55 20 -15 14 -38 32 -50 38 -21 10 -23 18 -22
79 1 55 -2 69 -17 77 -28 15 -42 -11 -43 -80 -1 -60 -2 -61 -39 -83 -49 -27
-78 -72 -80 -125 -2 -48 10 -41 -203 -122 -88 -34 -169 -65 -180 -70 -11 -5
-42 -18 -70 -28 -27 -10 -59 -22 -70 -27 -11 -4 -26 -9 -34 -11 -29 -6 -40
-31 -44 -99 -4 -64 -9 -78 -60 -165 -31 -52 -60 -100 -65 -105 -11 -13 -25
-62 -27 -95 -6 -100 88 -193 188 -185 76 7 136 56 157 131 15 54 7 103 -29
169 -99 180 -103 189 -104 236 -2 45 0 49 28 60 17 7 44 18 60 25 17 7 71 29
120 47 50 19 149 58 221 86 l132 52 37 -26 c21 -14 42 -25 47 -25 6 0 7 -143
3 -372 -4 -205 -7 -383 -6 -395 1 -25 -3 -26 -96 -23 l-53 1 0 -74 0 -74 -54
-6 c-30 -3 -68 -13 -85 -22 -67 -34 -130 -126 -131 -187 l0 -28 83 -1 c82 0
506 -8 687 -12 52 -2 100 -1 107 1 15 5 7 57 -19 109 -36 76 -107 124 -203
136 l-30 4 1 71 c0 43 -4 72 -10 73 -6 1 -40 2 -75 3 l-64 1 3 110 c4 203 8
439 9 557 l1 117 33 17 c54 28 87 77 87 127 0 20 30 35 243 125 133 57 250
107 259 113 56 30 50 -26 -13 -131 -81 -135 -102 -181 -103 -230 -2 -121 132
-215 241 -168 39 17 90 73 104 115 18 57 5 105 -66 235 -62 115 -66 127 -68
193 -2 67 -3 70 -27 72 -14 1 -43 -6 -65 -16z m79 -223 c24 -40 86 -161 86
-170 0 -4 -49 -8 -110 -7 -60 1 -110 5 -110 9 0 3 20 38 44 78 25 39 47 81 51
92 8 26 21 25 39 -2z m-1390 -660 c25 -48 46 -89 46 -93 0 -3 -48 -4 -107 -2
-87 3 -107 6 -105 18 2 7 7 16 11 19 3 3 12 16 19 30 12 26 38 69 62 107 18
27 16 29 74 -79z"/>
</g>
</svg>
