<svg xmlns="http://www.w3.org/2000/svg" viewBox="0 0 100 100">
  <g transform="translate(0,-952.36218)" fill="#be5619">
    <path
      d="m 58.656601,961.36219 -5.3438,2.77696 1.3125,2.68119 c -0.6419,1.29074 -1.159,2.23198 -1.875,3.47919 -0.8879,-0.26306 -1.8102,-0.41495 -2.7813,-0.41495 -0.9623,0 -1.8698,0.15648 -2.75,0.41495 -0.6703,-1.17854 -1.3185,-2.45343 -1.8438,-3.51109 l 1.2813,-2.6812 -5.375,-2.71312 -1.9688,4.08564 c -0.406,0.84007 -0.406,1.87304 0,2.71311 0.9489,1.96348 1.7772,3.54811 2.8125,5.3624 -1.6982,1.83876 -2.9799,4.21979 -3.6875,6.83067 -2.3326,1.68971 -4.3874,3.81624 -6.0937,6.28805 l -4.9064,-4.46866 3.4375,-11.42701 c 0.3611,-1.19543 -0.084,-2.59909 -1.0625,-3.3515 l -4,-3.06423 -3.625,4.91553 2.3125,1.78747 -3.375,11.20358 c -0.336003,1.1158 0.021,2.41656 0.875,3.1919 l 7.375,6.703 c -0.52,1.27047 -0.9561,2.58402 -1.3125,3.95796 -1.7245,-0.22112 -3.566,-0.58911 -5.25,-0.7022 -0.723,0.0459 -1.4258,0.37006 -1.9375,0.89373 l -13.1251025,13.40594 -4.75,0 0,6.1285 6,0 c 0.7861,0 1.5681995,-0.327 2.1249995,-0.8937 l 12.937603,-13.2145 3.0313,0.4469 c -0.056,0.8015 -0.094,1.6035 -0.094,2.4258 0,4.4483 0.8243,8.7007 2.3125,12.5123 l -7.4375,3.0323 c -0.7729,0.3212 -1.401403,0.9869 -1.687503,1.7874 l -5.4063,14.7147 -3.3751,0.7022 1.1876,6.0008 5,-1.0214 c 0.9914,-0.2014 1.8591,-0.9503 2.2188,-1.9151 l 5.531203,-15.0977 6.7501,-2.7451 c 4.1552,6.4261 10.5303,10.6291 17.9064,10.6291 7.3759,0 13.751101,-4.203 17.9062,-10.6291 l 6.7501,2.7451 5.5313,15.0977 c 0.3596,0.9648 1.2273,1.7137 2.2187,1.9151 l 5,1.0214 1.1876,-6.0008 -3.3751,-0.7022 -5.4062,-14.7147 c -0.2862,-0.8005 -0.9147,-1.4662 -1.6875,-1.7874 l -7.4375,-3.0323 c 1.4881,-3.8116 2.3125,-8.064 2.3125,-12.5123 0,-0.8229 -0.037,-1.6235 -0.094,-2.4258 l 3.0312,-0.4469 12.9376,13.2145 c 0.556901,0.5667 1.3389,0.8956 2.125,0.8937 l 6,0 0,-6.1285 -4.75,0 -13.1251,-13.40594 c -0.5642,-0.57436 -1.3597,-0.9041 -2.1562,-0.89373 -1.6625,0.16904 -3.3812,0.46016 -5.0625,0.7022 -0.3573,-1.36163 -0.7631,-2.69752 -1.2813,-3.95796 l 7.375,-6.703 c 0.8544,-0.77534 1.211001,-2.0761 0.875,-3.1919 l -3.375,-11.20358 2.3125,-1.78747 -3.625,-4.91553 -4,3.06423 c -0.9785,0.75241 -1.4236,2.15607 -1.0625,3.3515 l 3.4375,11.42701 -4.9376,4.46866 c -1.7187,-2.48496 -3.79,-4.62398 -6.125,-6.31996 -0.703,-2.57446 -1.955099,-4.94242 -3.625,-6.76684 1.0222,-1.78847 1.885,-3.48758 2.8125,-5.39432 0.416,-0.84827 0.416,-1.89676 0,-2.74503 l -2.0312,-4.08564 z m -8.6876,14.65084 c 1.7077,0 4.3497,2.08571 5.5626,5.10704 -3.3253,2.4139 -7.7598,2.42811 -11.1251,0 1.2128,-3.02133 3.8548,-5.10704 5.5625,-5.10704 z"
      style="text-indent:0;text-transform:none;direction:ltr;block-progression:tb;baseline-shift:baseline;color:#000000;enable-background:accumulate;"
      fill-opacity="1" stroke="none" marker="none" visibility="visible" display="inline"
      overflow="visible" />
  </g>
  <!-- <text x="0" y="115" font-size="5px" font-weight="bold"
    font-family="'Helvetica Neue', Helvetica, Arial-Unicode, Arial, Sans-serif">Created by zidney</text>
  <text x="0"
    y="120" fill="#000000" font-size="5px" font-weight="bold"
    font-family="'Helvetica Neue', Helvetica, Arial-Unicode, Arial, Sans-serif">from the Noun Project</text> -->
</svg>
