<svg xmlns="http://www.w3.org/2000/svg" viewBox="0 0 42 42">
  <g fill="#04111c">
    <path
      d="M31.841,30.24c0,0,2.427-1.619,1.978-2.607c-0.45-0.988-2.787-0.18-5.303,1.258c0,0,1.708,5.646-8.269,3.094  c0,0,5.662-0.127,6.561-0.936c0.898-0.809,0.791-2.684-3.137-2.719c-2.878-0.025-4.228-2.766-6.813-3.23  c-2.322-0.418-6.137,1.18-11.843,5.457l4.267,4.268c0,0,2.877,0,3.596,0s5.087,1.463,9.419,2.303  c2.891,0.563,12.331-5.27,14.129-6.617C38.222,29.162,35.436,27.813,31.841,30.24z" />
    <path
      d="M20.225,21.521c1.568,1.469,3.67,2.373,5.989,2.373c4.845,0,8.772-3.926,8.772-8.771c0-4.566-3.487-8.313-7.943-8.73  c-1.42-1.006-3.111-1.557-4.876-1.557c-4.665,0-8.46,3.795-8.46,8.459C13.707,17.291,16.495,20.641,20.225,21.521z M28.992,11.193  l-1.174,0.955c-0.205-0.219-0.431-0.393-0.675-0.525s-0.536-0.199-0.875-0.199c-0.4,0-0.708,0.1-0.924,0.299  c-0.217,0.201-0.325,0.463-0.325,0.787c0,0.369,0.147,0.693,0.442,0.971c0.192,0.172,0.413,0.324,0.657,0.457s0.479,0.266,0.708,0.4  c0.345,0.201,0.663,0.4,0.958,0.6c0.294,0.201,0.547,0.418,0.758,0.656c0.212,0.236,0.377,0.5,0.496,0.791  c0.12,0.291,0.179,0.627,0.179,1.008c0,0.684-0.214,1.252-0.642,1.705s-1.056,0.723-1.883,0.805v1.438h-0.924v-1.451  c-0.578-0.064-1.061-0.217-1.45-0.453s-0.757-0.537-1.108-0.898l1.191-0.914c0.139,0.131,0.273,0.256,0.405,0.377  c0.13,0.119,0.269,0.227,0.417,0.316c0.147,0.09,0.31,0.162,0.486,0.213c0.178,0.051,0.381,0.076,0.609,0.076  c0.394,0,0.691-0.109,0.891-0.326c0.2-0.219,0.299-0.486,0.299-0.803c0-0.33-0.103-0.615-0.308-0.855  c-0.206-0.238-0.461-0.461-0.767-0.664c-0.306-0.205-0.637-0.408-0.996-0.607c-0.358-0.199-0.69-0.426-0.999-0.676  c-0.308-0.252-0.565-0.543-0.771-0.873c-0.205-0.33-0.308-0.727-0.308-1.191c0-0.316,0.054-0.611,0.162-0.887  c0.108-0.273,0.266-0.521,0.471-0.742s0.459-0.404,0.763-0.551c0.302-0.146,0.639-0.242,1.012-0.289V8.906h0.924v1.234  c0.5,0.057,0.927,0.17,1.279,0.342S28.664,10.891,28.992,11.193z M22.167,6.336c0.667,0,1.323,0.094,1.95,0.277  c-3.83,0.941-6.676,4.389-6.676,8.51c0,1.455,0.36,2.824,0.987,4.033c-1.934-1.238-3.222-3.4-3.222-5.861  C15.207,9.457,18.329,6.336,22.167,6.336z" />
  </g>
</svg>
