<svg xmlns="http://www.w3.org/2000/svg" viewBox="0 0 65 65">
  <g fill="#04111c">
    <path d="M61.7,51V11.2H34.8v1.5h25.4V51H4.8V12.7H15v-1.5H3.3V51h-3.5v3l2.8,3.9h60l2.8-3.9v-3H61.7z M63.8,53.5l-2,2.8H3.3l-2-2.8   v-1h62.5V53.5z"/>
    <polygon points="33.5,17.1 32.5,16 29.8,18.7 29.8,12.9 28.3,12.9 28.3,18.7 25.5,16 24.5,17.1 29,21.6  "/>
    <rect x="28.3" y="10" width="1.5" height="1.5"/>
    <rect x="28.3" y="7.2" width="1.5" height="1.5"/>
    <polygon points="24.1,23.6 23.1,22.6 20.3,25.3 20.4,19.5 18.9,19.5 18.8,25.3 16.1,22.5 15.1,23.6 19.6,28.1  "/>
    <rect x="18.8" y="16.5" width="1.5" height="1.5"/><rect x="18.9" y="13.7" width="1.5" height="1.5"/>
    <path d="M46.1,38v-1.9c0.6-0.1,1.2-0.4,1.7-0.8c0.7-0.6,1.1-1.4,1.1-2.3c0-0.9-0.4-1.7-1.1-2.3c-0.7-0.6-1.6-0.9-2.5-0.9   c-0.6,0-1.1-0.2-1.5-0.5c-0.4-0.3-0.6-0.7-0.6-1.2c0-0.4,0.2-0.8,0.6-1.2c0.8-0.7,2.2-0.7,3,0c0.4,0.3,0.6,0.7,0.6,1.2h1.5   c0-0.9-0.4-1.7-1.1-2.3c-0.5-0.4-1.1-0.7-1.7-0.8v-1.9h-1.5v1.9c-0.6,0.1-1.3,0.4-1.7,0.8c-0.7,0.6-1.1,1.4-1.1,2.3   c0,0.9,0.4,1.7,1.1,2.3c0.7,0.6,1.6,0.9,2.5,0.9c0.6,0,1.1,0.2,1.5,0.5c0.4,0.3,0.6,0.7,0.6,1.2c0,0.4-0.2,0.8-0.6,1.2   c-0.8,0.7-2.2,0.7-3,0c-0.4-0.3-0.6-0.7-0.6-1.2h-1.5c0,0.9,0.4,1.7,1.1,2.3c0.5,0.4,1.1,0.7,1.7,0.8V38H46.1z"/>
    <path d="M56.1,30.6c0-5.9-4.8-10.8-10.8-10.8c-5.9,0-10.8,4.8-10.8,10.8c0,5.9,4.8,10.8,10.8,10.8C51.3,41.4,56.1,36.6,56.1,30.6z    M36,30.6c0-5.1,4.2-9.3,9.3-9.3c5.1,0,9.3,4.2,9.3,9.3c0,5.1-4.2,9.3-9.3,9.3C40.2,39.9,36,35.7,36,30.6z"/>
    <path d="M25.9,36.7v0.9c-0.3,0.1-0.6,0.2-0.9,0.5c-0.5,0.4-0.7,1-0.7,1.6c0,0.6,0.3,1.2,0.7,1.6c0.4,0.4,1,0.6,1.7,0.6   c0.3,0,0.5,0.1,0.7,0.2c0.1,0.1,0.2,0.2,0.2,0.4c0,0.2-0.1,0.4-0.2,0.4c-0.3,0.3-1,0.3-1.3,0c-0.1-0.1-0.2-0.2-0.2-0.4h-1.5   c0,0.6,0.3,1.2,0.7,1.6c0.3,0.2,0.6,0.4,0.9,0.5v0.9h1.5v-0.9c0.3-0.1,0.6-0.3,0.9-0.5c0.5-0.4,0.7-1,0.7-1.6   c0-0.6-0.3-1.2-0.7-1.6c-0.4-0.4-1-0.6-1.7-0.6c-0.3,0-0.5-0.1-0.7-0.2c-0.1-0.1-0.2-0.2-0.2-0.4c0-0.2,0.1-0.4,0.2-0.4   c0.3-0.3,1-0.3,1.3,0c0.1,0.1,0.2,0.2,0.2,0.4h1.5c0-0.6-0.3-1.2-0.7-1.6c-0.3-0.2-0.6-0.4-0.9-0.5v-0.9H25.9z"/>
    <path d="M20.1,41.1c0,3.6,3,6.6,6.6,6.6c3.6,0,6.6-3,6.6-6.6s-3-6.6-6.6-6.6C23,34.5,20.1,37.4,20.1,41.1z M31.8,41.1   c0,2.8-2.3,5.1-5.1,5.1c-2.8,0-5.1-2.3-5.1-5.1c0-2.8,2.3-5.1,5.1-5.1C29.5,36,31.8,38.2,31.8,41.1z"/>
  </g>
</svg>
