<svg xmlns="http://www.w3.org/2000/svg" viewBox="0 0 120 120">
  <path fill="#be5619"
    d="M59.3,9.5c-31.4,0-57,27.4-57,60.9c0,7.9,1.4,15.8,4.2,23.3c3.3,9.1,11.4,15.6,21.2,15.8c2.8,0,5.1-2.3,5.1-5.1V75.3  c0-2.8-2.3-5.1-5.1-5.1c-5.1,0-10,1.9-13.7,4.7c-0.2-1.6-0.2-3-0.2-4.7c0-27.4,20.5-49.5,45.6-49.5s45.6,22.3,45.6,49.5  c0,1.6,0,3.3-0.2,4.7c-3.7-3-8.4-4.9-13.7-4.9c-2.8,0-5.1,2.3-5.1,5.1v28.8c0,2.8,2.3,5.1,5.1,5.1c5.6,0,11.4-2.1,15.1-6.3  c4-4.2,5.8-8.8,7.4-14.4c1.6-5.6,2.6-11.6,2.6-17.9C116,36.9,90.7,9.5,59.3,9.5z" />
  <!-- <text x="0" y="135" fill="#000000" font-size="5px" font-weight="bold"
    font-family="'Helvetica Neue', Helvetica, Arial-Unicode, Arial, Sans-serif">Created by Xela Ub</text>
  <text x="0"
    y="140" fill="#000000" font-size="5px" font-weight="bold"
    font-family="'Helvetica Neue', Helvetica, Arial-Unicode, Arial, Sans-serif">from the Noun Project</text> -->
</svg>
