<svg xmlns="http://www.w3.org/2000/svg" viewBox="0 0 100 100">
  <g fill="#04111c">
    <path
      d="M65.1,39.5V32c3,1,3.4,4.8,3.5,4.9l3.5,0.3L72,36.6c-0.2-2.5-2-7.3-6.9-8.2v-3h-3.4v3.1c-2.1,0.4-4,1.4-5.2,2.8  c-1.3,1.5-1.9,3.5-1.6,5.6c0.5,3.9,4.6,5.2,6.8,5.6v5.9c-3.3-1.1-3.4-3.8-3.4-4v-0.7l-3.4,0.6c0,0.1,0,6.1,6.8,7.6v3.7h3.4v-3.4  c1.1-0.1,3-0.5,4.5-1.9C71.2,49,72,47,72,44.6C72,40.9,67.6,39.8,65.1,39.5z M68.6,44.6c0,1.4-0.4,2.5-1.2,3.2  c-0.6,0.5-1.4,0.9-2.2,1v-5.9C67.1,43.3,68.6,44,68.6,44.6z M58.3,36.5L58.3,36.5c-0.2-1.2,0.1-2.1,0.8-2.9c0.7-0.8,1.8-1.3,2.6-1.5  v7C60.2,38.7,58.5,38,58.3,36.5z" />
    <path
      d="M52.4,50.7c0-0.4-0.4-0.9-0.9-0.9H3.1c-0.4,0-0.9,0.4-0.9,0.9v11.9h50.2V50.7z M11.2,59.4c-1.7,0-3.1-1.4-3.1-3.1  c0-1.7,1.4-3.1,3.1-3.1c1.7,0,3.1,1.4,3.1,3.1C14.2,58,12.9,59.4,11.2,59.4z M43.3,59.4c-1.7,0-3.1-1.4-3.1-3.1  c0-1.7,1.4-3.1,3.1-3.1c1.7,0,3.1,1.4,3.1,3.1C46.3,58,45,59.4,43.3,59.4z" />
    <path
      d="M63.4,6.5c-19.5,0-35.3,15.9-35.3,35.3h5.1c0-16.7,13.6-30.3,30.3-30.3s30.3,13.6,30.3,30.3  S80.1,72.1,63.4,72.1v5.1c19.5,0,35.3-15.9,35.3-35.3S82.9,6.5,63.4,6.5z" />
    <path
      d="M2.2,65.9V93c0,0.4,0.4,0.9,0.9,0.9h48.4c0.4,0,0.9-0.4,0.9-0.9V65.9H2.2z M18.5,89.3H8.1v-7.1h10.4V89.3z M18.6,78.1H8.2  V71h10.4V78.1z M32.5,89.3H22.1v-7.1h10.4V89.3z M32.6,78.1H22.2V71h10.4V78.1z M46.4,89.3H36v-7.1h10.4V89.3z M46.6,78.1H36.1V71  h10.4V78.1z" />
  </g>
</svg>
