<svg xmlns="http://www.w3.org/2000/svg" viewBox="0 0 64 64">
  <g fill="#be5619">
    <path
      d="M13,62v-1.62C13,58.513,11.487,57,9.62,57h0c1.063-0.929,1.647-2.391,1.259-3.989c-0.347-1.427-1.512-2.581-2.945-2.906  C5.319,49.514,3,51.486,3,54c0,1.202,0.541,2.267,1.38,3h0C2.513,57,1,58.513,1,60.38V62" />
    <path
      d="M27,62v-1.62c0-1.866-1.513-3.38-3.38-3.38h0c1.063-0.929,1.647-2.391,1.259-3.989c-0.347-1.427-1.512-2.581-2.945-2.906  C19.319,49.514,17,51.486,17,54c0,1.202,0.541,2.267,1.38,3h0C16.513,57,15,58.513,15,60.38V62" />
    <g>
      <path
        d="M47,2H2v26h27l10,8l-2-8h10V2z M13,5h2v3h-2V5z M7.707,6.293l2,2L8.293,9.707l-2-2L7.707,6.293z M18,17v6h-8v-6H7l7-6l7,6   H18z M19.707,9.707l-1.414-1.414l2-2l1.414,1.414L19.707,9.707z M35,23c-4.418,0-8-3.582-8-8s3.582-8,8-8s8,3.582,8,8   S39.418,23,35,23z" />
      <path
        d="M35,14c-0.552,0-1-0.448-1-1s0.448-1,1-1h2v-2h-2c-1.654,0-3,1.346-3,3s1.346,3,3,3c0.552,0,1,0.448,1,1s-0.448,1-1,1h-2v2   h2c1.654,0,3-1.346,3-3S36.654,14,35,14z" />
    </g>
    <path
      d="M61,44c0-1.105-0.895-2-2-2s-2,0.895-2,2c0,0.944,0.656,1.73,1.535,1.94c0.641,1.375,0.37,3.033-0.713,4.118L56.879,51  H41.707l-0.942-0.942c-1.084-1.084-1.355-2.742-0.713-4.118c0.879-0.21,1.535-0.996,1.535-1.94c0-1.105-0.895-2-2-2s-2,0.895-2,2  c0,0.527,0.208,1.003,0.541,1.36c-0.839,2.074-0.386,4.503,1.224,6.112l0.942,0.942V62h18v-9.586l0.942-0.942  c1.609-1.609,2.063-4.038,1.224-6.112C60.792,45.003,61,44.527,61,44z" />
    <path
      d="M51.913,38c1.063-0.929,1.647-2.391,1.259-3.989c-0.347-1.427-1.513-2.581-2.945-2.906c-2.616-0.592-4.935,1.38-4.935,3.894  c0,1.202,0.541,2.267,1.38,3c-1.866,0-3.38,1.513-3.38,3.38V50h12v-8.62C55.293,39.513,53.78,38,51.913,38z M49.293,46l-2-4l2-3l2,3  L49.293,46z" />
  </g>
  <!-- <text x="0" y="79" fill="#000000" font-size="5px" font-weight="bold"
    font-family="'Helvetica Neue', Helvetica, Arial-Unicode, Arial, Sans-serif">Created by Nithinan Tatah</text>
  <text
    x="0" y="84" fill="#000000" font-size="5px" font-weight="bold"
    font-family="'Helvetica Neue', Helvetica, Arial-Unicode, Arial, Sans-serif">from the Noun Project</text> -->
</svg>
