<svg xmlns="http://www.w3.org/2000/svg" viewBox="0 0 32 32">
  <g fill="#04111c" transform="translate(0,-1020.3622)">
    <path
      d="m 5.4989198,1023.6132 a 0.750075,0.750075 0 0 0 -0.5293,1.2793 L 16.43832,1036.3632 4.9696198,1047.832 a 0.750075,0.750075 0 0 0 0.5293,1.2793 l 21.0000002,0 a 0.750075,0.750075 0 0 0 0.75,-0.75 l 0,-2 -1.5,0 0,1.25 -18.4375002,0 10.7187002,-10.7188 a 0.750075,0.750075 0 0 0 0,-1.0605 l -10.7187002,-10.7188 18.4375002,0 0,1.25 1.5,0 0,-2 a 0.750075,0.750075 0 0 0 -0.75,-0.7501 z" />
  </g>
</svg>
