<svg xmlns="http://www.w3.org/2000/svg" viewBox="0 0 100 100">
  <switch>
    <g fill="#04111c">
      <g>
        <path
          d="M84.6,9.5h-4.2l-1.2,4.4c-1,4-4.9,7-8.9,7c-2.2,0-4.3-0.9-5.5-2.6c-1.3-1.7-1.7-4-1.1-6.2l0.7-2.6H50.9l-1.2,4.4     c-1.1,4-4.9,7-9,7c-2.2,0-4.2-0.9-5.5-2.6c-1.3-1.7-1.7-4-1.1-6.2l0.7-2.6h-4.4c-6.7,0-13.4,5.2-15.1,11.9L2.9,67.1     c-1,3.6-0.4,7.2,1.7,9.8c2,2.6,5.1,4.1,8.6,4.1h6.1v2.7c0,7.1,5.8,12.9,12.9,12.9h52.4c7.1,0,12.9-5.8,12.9-12.9V22.4     C97.5,15.3,91.7,9.5,84.6,9.5z M13.3,73.2c-0.8,0-1.8-0.2-2.4-1c-0.6-0.7-0.7-1.8-0.3-3l10.2-38.2h62.2l-9.7,36.2     c-0.9,3.3-4.4,6.1-7.6,6.1H13.3z M89.7,83.7c0,2.8-2.3,5.1-5.1,5.1H32.3c-2.8,0-5.1-2.3-5.1-5.1V81h38.5     c6.7,0,13.4-5.2,15.1-11.9L89.7,36V83.7z" />
        <path
          d="M40.7,17.3c2.4,0,4.8-1.9,5.4-4.3l1.4-5.3c0.6-2.4-0.8-4.3-3.1-4.3c-2.4,0-4.8,1.9-5.4,4.3L37.6,13     C37,15.3,38.4,17.3,40.7,17.3z" />
        <path
          d="M70.3,17.3c2.4,0,4.8-1.9,5.4-4.3l1.4-5.3c0.6-2.4-0.8-4.3-3.1-4.3c-2.4,0-4.8,1.9-5.4,4.3L67.1,13     C66.5,15.3,67.9,17.3,70.3,17.3z" />
        <path
          d="M50.2,54.5h-9.3c-0.6,0-1.3,0.5-1.5,1.1l-1.8,6.8c-0.2,0.6,0.2,1.1,0.8,1.1h9.3c0.6,0,1.3-0.5,1.5-1.1l1.8-6.8     C51.2,55,50.8,54.5,50.2,54.5z" />
        <path
          d="M33.8,54.5h-9.3c-0.6,0-1.3,0.5-1.5,1.1l-1.8,6.8c-0.2,0.6,0.2,1.1,0.8,1.1h9.3c0.6,0,1.3-0.5,1.5-1.1l1.8-6.8     C34.8,55,34.5,54.5,33.8,54.5z" />
        <path
          d="M66.6,54.5h-9.3c-0.6,0-1.3,0.5-1.5,1.1L54,62.4c-0.2,0.6,0.2,1.1,0.8,1.1h9.3c0.6,0,1.3-0.5,1.5-1.1l1.8-6.8     C67.6,55,67.2,54.5,66.6,54.5z" />
        <path
          d="M54,40.2h-9.3c-0.6,0-1.3,0.5-1.5,1.1l-1.8,6.8c-0.2,0.6,0.2,1.1,0.8,1.1h9.3c0.6,0,1.3-0.5,1.5-1.1l1.8-6.8     C55,40.7,54.7,40.2,54,40.2z" />
        <path
          d="M37.7,40.2h-9.3c-0.6,0-1.3,0.5-1.5,1.1l-1.8,6.8c-0.2,0.6,0.2,1.1,0.8,1.1h9.3c0.6,0,1.3-0.5,1.5-1.1l1.8-6.8     C38.7,40.7,38.3,40.2,37.7,40.2z" />
        <path
          d="M58.7,49.3H68c0.6,0,1.3-0.5,1.5-1.1l1.8-6.8c0.2-0.6-0.2-1.1-0.8-1.1h-9.3c-0.6,0-1.3,0.5-1.5,1.1l-1.8,6.8     C57.7,48.7,58,49.3,58.7,49.3z" />
      </g>
    </g>
  </switch>
</svg>
