<svg xmlns="http://www.w3.org/2000/svg" viewBox="0 0 50 50">
  <g fill="#04111c">
    <path
      d="M23.325,37.96c0-3.35,1.3-6.5,3.67-8.87c2.37-2.3701,5.51-3.67,8.86-3.67h0.23V1.85c0-0.47-0.38-0.85-0.85-0.85H3.955   c-0.47,0-0.85,0.38-0.85,0.85v46.29c0,0.47,0.38,0.86,0.85,0.86h25.96c-1.06-0.57-2.05-1.31-2.92-2.18   C24.625,44.45,23.325,41.3,23.325,37.96z M33.015,24.71c0,0.47-0.38,0.85-0.85,0.85h-4.28c-0.47,0-0.86-0.38-0.86-0.85v-4.46   c0-0.47,0.39-0.85,0.86-0.85h4.28c0.47,0,0.85,0.3799,0.85,0.85V24.71z M6.175,15.36V5.28c0-0.47,0.38-0.85,0.85-0.85h25.14   c0.47,0,0.85,0.38,0.85,0.85v10.08c0,0.47-0.38,0.85-0.85,0.85H7.025C6.555,16.21,6.175,15.83,6.175,15.36z M12.505,44.71   c0,0.47-0.38,0.86-0.85,0.86h-4.28c-0.47,0-0.85-0.39-0.85-0.86v-4.45c0-0.47,0.38-0.86,0.85-0.86h4.28c0.47,0,0.85,0.39,0.85,0.86   V44.71z M12.505,34.71c0,0.47-0.38,0.85-0.85,0.85h-4.28c-0.47,0-0.85-0.38-0.85-0.85v-4.46c0-0.47,0.38-0.85,0.85-0.85h4.28   c0.47,0,0.85,0.3799,0.85,0.85V34.71z M12.505,24.71c0,0.47-0.38,0.85-0.85,0.85h-4.28c-0.47,0-0.85-0.38-0.85-0.85v-4.46   c0-0.47,0.38-0.85,0.85-0.85h4.28c0.47,0,0.85,0.3799,0.85,0.85V24.71z M22.765,44.71c0,0.47-0.39,0.86-0.86,0.86h-4.28   c-0.47,0-0.85-0.39-0.85-0.86v-4.45c0-0.47,0.38-0.86,0.85-0.86h4.28c0.47,0,0.86,0.39,0.86,0.86V44.71z M22.765,34.71   c0,0.47-0.39,0.85-0.86,0.85h-4.28c-0.47,0-0.85-0.38-0.85-0.85v-4.46c0-0.47,0.38-0.85,0.85-0.85h4.28   c0.47,0,0.86,0.3799,0.86,0.85V34.71z M22.765,24.71c0,0.47-0.39,0.85-0.86,0.85h-4.28c-0.47,0-0.85-0.38-0.85-0.85v-4.46   c0-0.47,0.38-0.85,0.85-0.85h4.28c0.47,0,0.86,0.3799,0.86,0.85V24.71z" />
    <path
      d="M35.855,26.92c-6.0284,0-11.03,4.8663-11.03,11.04c0,6.1556,5.0104,11.04,11.03,11.04c5.9715,0,11.04-4.8003,11.04-11.04   C46.895,31.6843,41.8156,26.92,35.855,26.92z M35.855,46.28c-4.6542,0-8.34-3.8078-8.34-8.35c0-4.5967,3.7161-8.35,8.34-8.35   c4.4899,0,8.35,3.6031,8.35,8.35C44.205,42.5801,40.4331,46.28,35.855,46.28z" />
    <path d="M36.355,38.61v2.18c0.65-0.06,1.24-0.4,1.24-1.04C37.595,39.04,37.065,38.82,36.355,38.61z" />
    <path d="M34.455,35.8c0,0.67,0.47,0.88,1.14,1.1v-2.1C34.975,34.86,34.455,35.19,34.455,35.8z" />
    <path
      d="M35.855,31.08c-3.7946,0-6.84,3.0773-6.84,6.85c0,3.8092,3.1089,6.85,6.84,6.85c3.7268,0,6.85-3.0038,6.85-6.85   C42.705,34.0512,39.575,31.08,35.855,31.08z M36.355,42.09V42.97h-0.76v-0.89c-1.08-0.11-2.06-0.55-2.92-1.32l0.8701-1.06   c0.66,0.59,1.35,0.94,2.05,1.06V38.4c-1.58-0.39-2.59-0.92-2.59-2.45c0-1.47,1.12-2.37,2.59-2.45v-0.61h0.76v0.62   c0.88,0.07,1.7,0.37,2.48,0.91l-0.78,1.12c-0.52-0.38-1.09-0.61-1.7-0.7v2.28h0.04c1.61,0.39,2.65,0.96,2.65,2.51   C39.045,41.13,37.885,42.02,36.355,42.09z" />
  </g>
</svg>
